<?xml version="1.0" encoding="UTF-8" standalone="no"?>
<!-- Created with Inkscape (http://www.inkscape.org/) -->

<svg
   xmlns:dc="http://purl.org/dc/elements/1.1/"
   xmlns:cc="http://creativecommons.org/ns#"
   xmlns:rdf="http://www.w3.org/1999/02/22-rdf-syntax-ns#"
   xmlns:svg="http://www.w3.org/2000/svg"
   xmlns="http://www.w3.org/2000/svg"
   xmlns:sodipodi="http://sodipodi.sourceforge.net/DTD/sodipodi-0.dtd"
   xmlns:inkscape="http://www.inkscape.org/namespaces/inkscape"
   width="744.09448819"
   height="1052.3622047"
   id="svg2"
   version="1.1"
   inkscape:version="0.48.4 r9939"
   sodipodi:docname="public-lab-cookies.svg">
  <defs
     id="defs4" />
  <sodipodi:namedview
     id="base"
     pagecolor="#ffffff"
     bordercolor="#666666"
     borderopacity="1.0"
     inkscape:pageopacity="0.0"
     inkscape:pageshadow="2"
     inkscape:zoom="0.7"
     inkscape:cx="666.14053"
     inkscape:cy="604.03392"
     inkscape:document-units="px"
     inkscape:current-layer="layer1"
     showgrid="false"
     inkscape:window-width="1549"
     inkscape:window-height="876"
     inkscape:window-x="51"
     inkscape:window-y="24"
     inkscape:window-maximized="1" />
  <metadata
     id="metadata7">
    <rdf:RDF>
      <cc:Work
         rdf:about="">
        <dc:format>image/svg+xml</dc:format>
        <dc:type
           rdf:resource="http://purl.org/dc/dcmitype/StillImage" />
        <dc:title></dc:title>
      </cc:Work>
    </rdf:RDF>
  </metadata>
  <g
     inkscape:label="Layer 1"
     inkscape:groupmode="layer"
     id="layer1">
    <path
       style="fill:none;stroke:#333333"
       d="m 154.19575,296.73566 c -6.88974,-1.14611 -14.87495,-4.60555 -16.72392,-7.24532 -3.72804,-5.32253 -0.88909,-9.4072 11.51302,-16.56489 4.98466,-2.87681 11.41792,-7.40651 14.29614,-10.066 5.23313,-4.83545 5.23313,-4.83545 2.53419,-5.8762 -1.51319,-0.5835 -8.982,-0.95665 -17,-0.84932 -13.12322,0.17565 -14.73535,-0.004 -19.57414,-2.17724 -7.14364,-3.20891 -10.22692,-7.02104 -10.22692,-12.64444 0,-5.17541 3.60652,-9.97109 10.56566,-14.04942 3.98215,-2.33369 4.25196,-2.75769 3.74456,-5.88444 -0.7684,-4.7351 1.45577,-13.09266 4.42267,-16.61861 3.70286,-4.4006 6.8417,-5.66492 23.45961,-9.44944 8.29396,-1.88885 17.53108,-4.55644 20.52695,-5.928 5.31082,-2.43137 5.42948,-2.57542 4.74536,-5.76094 -0.38592,-1.79697 -5.19411,-22.16722 -10.68487,-45.26722 -5.49076,-23.1 -10.20916,-43.440722 -10.48533,-45.201592 -1.42025,-9.0557 15.26923,-13.43463 56.79718,-14.90226 10.77548,-0.38081 20.78113,-0.39388 22.23477,-0.029 1.68719,0.42346 2.86851,1.56193 3.26662,3.14812 0.75084,2.9916 0.64039,2.98479 7.90049,0.48695 14.22704,-4.89482 31.98315,-4.58883 41.7358,0.71923 4.82769,2.62756 10.77053,9.9481 10.77053,13.2674 0,0.90526 -1.60254,14.215612 -3.5612,29.578562 -6.48064,50.83158 -8.29299,68.83452 -7.40354,73.54286 0.45609,2.41437 2.47852,7.98977 4.49427,12.38977 3.95575,8.63461 7.47047,20.87495 7.47047,26.01657 l 0,3.19665 17.75,0.56015 c 23.80629,0.75127 31.25,3.12338 31.25,9.95854 0,3.79958 -3.47924,7.2232 -12.95689,12.74975 -23.30076,13.58701 -52.43846,23.76806 -78.86247,27.55546 -14.14412,2.02731 -20.65449,0.94398 -33.45138,-5.56634 -13.2654,-6.74866 -15.00033,-6.6222 -27.29377,1.98938 -11.88005,8.32201 -32.88155,11.97756 -51.25386,8.92132 z"
       id="path3073"
       inkscape:connector-curvature="0" />
    <path
       style="fill:none;stroke:#800000"
       d="m 470.5121,97.499028 c -15.10255,6.224082 -32.23412,6.635382 -48.375,5.500002 -5.88788,-0.78137 -11.87261,-1.52605 -17.40625,-3.718752 6.77283,29.198872 14.16467,58.406452 20.0625,87.718752 -3.30393,5.77936 -11.43943,6.23806 -17.0625,8.65625 -10.77685,3.83041 -23.7005,3.53095 -32.78125,10.96875 -6.34554,7.59888 -5.32925,21.83642 3.5625,26.96875 22.43588,7.50191 46.10265,-0.84269 67.35945,-8.35328 6.45278,-1.87305 14.19669,-6.91602 20.51555,-2.02172 5.55245,1.47535 14.06521,-0.17723 14.1875,-7.28125 2.62389,-25.40657 -8.19826,-49.69074 -8.4375,-75 0.20191,-7.0643 -1.28779,-15.19818 2.3125,-21.5625 4.64556,-2.05001 5.23239,5.09038 6.17446,8.12777 4.51491,22.52991 10.17037,45.23363 11.38804,68.18473 0.13425,9.05222 -3.1699,18.00928 -0.5625,26.96875 2.64917,8.68721 -0.18815,17.3183 -1.84375,25.875 -1.8812,8.59929 2.12512,18.50951 11.21875,20.84375 9.8737,2.83129 23.40333,5.16589 30.75,-3.90625 7.03217,-11.60328 6.23328,-26.44572 3.55253,-39.21562 -2.66185,-11.31089 -11.48477,-21.27612 -9.67753,-33.59688 1.7463,-29.37949 5.57834,-58.66636 9.5625,-87.78125 -13.61518,5.61406 -28.88466,8.24288 -43.6494,7.03941 -8.35804,-0.86714 -20.06348,-4.71607 -20.44435,-14.664412 l -0.40625,0.25 z"
       id="path3069"
       inkscape:connector-curvature="0" />
    <path
       style="fill:none"
       d="m 247.41581,916.37335 c 14.84439,-2.88903 14.84439,-2.88903 14.32161,-5.91439 -0.28753,-1.66395 -1.09417,-6.27369 -1.79254,-10.24388 -0.69837,-3.97018 -1.02815,-7.46012 -0.73286,-7.75542 0.2953,-0.29529 4.32197,-1.27927 8.94815,-2.18661 4.62619,-0.90733 8.53155,-1.7377 8.67859,-1.84525 0.14704,-0.10756 -0.59315,-4.65025 -1.64488,-10.09488 -1.05173,-5.44462 -1.70871,-10.23563 -1.45996,-10.64668 0.24875,-0.41105 2.23642,-1.03265 4.41705,-1.38135 2.18063,-0.3487 4.25262,-1.09973 4.60443,-1.66897 0.3518,-0.56924 -4.04567,-24.80448 -9.77217,-53.8561 l -10.41181,-52.82114 -3.5,0.66551 c -7.54335,1.43434 -7.225,1.7473 -9.34898,-9.19059 -1.06802,-5.5 -2.01927,-10.10536 -2.11389,-10.23413 -0.0946,-0.12877 -4.30452,0.50841 -9.35531,1.41595 -5.0508,0.90754 -9.46184,1.37149 -9.80233,1.031 -0.34049,-0.34048 -1.47058,-4.77058 -2.51132,-9.84465 -1.04074,-5.07408 -2.08278,-9.41611 -2.31563,-9.64897 -0.53377,-0.53377 -30.31328,5.01489 -31.78006,5.92141 -0.76286,0.47148 -0.59329,3.14102 0.57263,9.01462 2.60304,13.11348 3.09299,12.20712 -7.69759,14.23948 l -9.35247,1.7615 1.81306,8.6719 c 2.72546,13.03591 2.76449,12.8642 -3.10811,13.67189 -2.75,0.37822 -5,1.03593 -5,1.46157 0,0.83704 19.77849,101.15438 20.6358,104.66562 0.46325,1.89733 0.91621,2.03498 4.19178,1.27386 6.82067,-1.58487 6.75461,-1.64522 8.59327,7.84895 0.93199,4.8125 1.90469,9.47699 2.16155,10.36553 0.42625,1.4745 1.26681,1.45148 9.62869,-0.26362 5.03892,-1.03353 9.51166,-1.52916 9.93943,-1.10139 0.42776,0.42776 1.46753,4.14639 2.31058,8.26362 2.52934,12.35252 2.48517,12.23272 4.33425,11.75502 0.93756,-0.24221 8.38462,-1.74045 16.54904,-3.32941 z"
       id="path3249" />
  </g>
</svg>
