<?xml version="1.0" encoding="UTF-8" standalone="no"?>
<!-- Created with Inkscape (http://www.inkscape.org/) -->

<svg
   xmlns:dc="http://purl.org/dc/elements/1.1/"
   xmlns:cc="http://creativecommons.org/ns#"
   xmlns:rdf="http://www.w3.org/1999/02/22-rdf-syntax-ns#"
   xmlns:svg="http://www.w3.org/2000/svg"
   xmlns="http://www.w3.org/2000/svg"
   xmlns:sodipodi="http://sodipodi.sourceforge.net/DTD/sodipodi-0.dtd"
   xmlns:inkscape="http://www.inkscape.org/namespaces/inkscape"
   width="744.09448819"
   height="1052.3622047"
   id="svg3265"
   version="1.1"
   inkscape:version="0.48.4 r9939"
   sodipodi:docname="New document 9">
  <defs
     id="defs3267" />
  <sodipodi:namedview
     id="base"
     pagecolor="#ffffff"
     bordercolor="#666666"
     borderopacity="1.0"
     inkscape:pageopacity="0.0"
     inkscape:pageshadow="2"
     inkscape:zoom="0.35"
     inkscape:cx="375"
     inkscape:cy="520"
     inkscape:document-units="px"
     inkscape:current-layer="layer1"
     showgrid="false"
     inkscape:window-width="472"
     inkscape:window-height="402"
     inkscape:window-x="51"
     inkscape:window-y="469"
     inkscape:window-maximized="0" />
  <metadata
     id="metadata3270">
    <rdf:RDF>
      <cc:Work
         rdf:about="">
        <dc:format>image/svg+xml</dc:format>
        <dc:type
           rdf:resource="http://purl.org/dc/dcmitype/StillImage" />
        <dc:title></dc:title>
      </cc:Work>
    </rdf:RDF>
  </metadata>
  <g
     inkscape:label="Layer 1"
     inkscape:groupmode="layer"
     id="layer1">
    <path
       style="fill:none;stroke:#800000"
       d="m 315.0193,633.58396 c -0.23072,-0.4125 -1.22122,-5.025 -2.20114,-10.25 -0.97991,-5.225 -1.87562,-9.62042 -1.99047,-9.7676 -0.11485,-0.14719 -3.45532,0.41531 -7.42326,1.25 -13.0354,2.74208 -12.46362,3.07228 -14.57132,-8.41496 l -1.82243,-9.93255 -5.55805,0.18255 -5.55804,0.18256 -10.7514,-54 c -5.91327,-29.70001 -10.65089,-54.67501 -10.52803,-55.50001 0.13007,-0.87349 2.09917,-1.95865 4.71447,-2.5981 5.17371,-1.26501 5.15825,-1.19327 2.95466,-13.71574 -1.62705,-9.24612 -1.90784,-8.89961 8.67902,-10.71055 4.08153,-0.69816 7.67439,-1.67945 7.98414,-2.18063 0.30975,-0.50118 -0.23826,-5.16637 -1.21779,-10.36709 -1.09238,-5.79986 -1.41907,-9.76662 -0.84495,-10.25964 1.35995,-1.16783 36.25586,-7.68175 37.02606,-6.91155 0.35725,0.35725 1.50106,4.80106 2.5418,9.87513 1.04074,5.07408 2.09752,9.43086 2.3484,9.68173 0.25088,0.25088 4.39745,-0.26755 9.2146,-1.15206 4.81715,-0.88452 9.09717,-1.2695 9.51117,-0.8555 0.41399,0.41399 1.6081,4.9231 2.65357,10.02023 1.04547,5.09714 2.07946,9.44613 2.29776,9.66443 0.21829,0.2183 2.36884,-0.0462 4.77898,-0.58769 2.41014,-0.54152 4.73018,-0.62872 5.15563,-0.19378 1.06514,1.08889 22.05311,107.29162 21.69565,109.78369 -0.21493,1.49841 -1.42435,2.23417 -4.78758,2.91257 -2.475,0.49924 -4.58511,0.95986 -4.68913,1.0236 -0.10403,0.0637 0.67727,4.58949 1.7362,10.05722 1.05894,5.46773 1.56045,10.30622 1.11445,10.75222 -0.44599,0.44599 -4.64039,1.54914 -9.32088,2.45145 l -8.50999,1.64055 1.79525,8.58476 c 2.91263,13.92792 4.57839,12.25556 -16.37591,16.44085 -20.2704,4.0487 -19.47016,3.93321 -20.05144,2.89391 z"
       id="path3251"
       inkscape:connector-curvature="0" />
    <path
       style="fill:none;stroke:#000080"
       d="m 457.06276,568.30877 c 20.87596,-4.11544 38.11618,-7.64252 38.31161,-7.83794 0.56797,-0.56798 -17.93599,-93.9742 -18.80525,-94.92714 -0.64976,-0.71231 -81.53238,14.53462 -82.44647,15.54173 -0.23139,0.25493 12.75412,67.27992 17.56776,90.67637 1.09656,5.32981 1.11771,5.35311 4.25905,4.693 1.73635,-0.36487 20.23734,-4.03058 41.1133,-8.14602 z"
       id="path3237"
       inkscape:connector-curvature="0" />
  </g>
</svg>
